<?xml version="1.0" encoding="UTF-8"?>
<svg xmlns="http://www.w3.org/2000/svg" viewBox="0 0 9 9" shape-rendering="crispEdges"><path fill="#ffffff" d="M2 0h1v1h-1zM3 0h1v1h-1zM4 0h1v1h-1zM5 0h1v1h-1zM6 0h1v1h-1zM1 1h1v1h-1zM7 1h1v1h-1zM1 2h1v1h-1zM7 2h1v1h-1zM0 3h1v1h-1zM1 3h1v1h-1zM2 3h1v1h-1zM3 3h1v1h-1zM4 3h1v1h-1zM5 3h1v1h-1zM6 3h1v1h-1zM7 3h1v1h-1zM8 3h1v1h-1zM0 4h1v1h-1zM1 4h1v1h-1zM2 4h1v1h-1zM3 4h1v1h-1zM5 4h1v1h-1zM6 4h1v1h-1zM7 4h1v1h-1zM8 4h1v1h-1zM0 5h1v1h-1zM1 5h1v1h-1zM2 5h1v1h-1zM3 5h1v1h-1zM5 5h1v1h-1zM6 5h1v1h-1zM7 5h1v1h-1zM8 5h1v1h-1zM0 6h1v1h-1zM1 6h1v1h-1zM2 6h1v1h-1zM3 6h1v1h-1zM4 6h1v1h-1zM5 6h1v1h-1zM6 6h1v1h-1zM7 6h1v1h-1zM8 6h1v1h-1zM0 7h1v1h-1zM1 7h1v1h-1zM2 7h1v1h-1zM3 7h1v1h-1zM4 7h1v1h-1zM5 7h1v1h-1zM6 7h1v1h-1zM7 7h1v1h-1zM8 7h1v1h-1z"/></svg>